<svg xmlns="http://www.w3.org/2000/svg" viewBox="0 0 1200 800" preserveAspectRatio="none">
  <defs>
    <linearGradient id="heroGradient" x1="0%" y1="0%" x2="100%" y2="100%">
      <stop offset="0%" style="stop-color:#667eea;stop-opacity:1" />
      <stop offset="100%" style="stop-color:#764ba2;stop-opacity:1" />
    </linearGradient>
    <pattern id="grid" width="50" height="50" patternUnits="userSpaceOnUse">
      <path d="M 50 0 L 0 0 0 50" fill="none" stroke="rgba(255,255,255,0.1)" stroke-width="1"/>
    </pattern>
    <filter id="glow">
      <feGaussianBlur stdDeviation="3" result="coloredBlur"/>
      <feMerge> 
        <feMergeNode in="coloredBlur"/>
        <feMergeNode in="SourceGraphic"/>
      </feMerge>
    </filter>
  </defs>
  
  <!-- Fond principal -->
  <rect width="1200" height="800" fill="url(#heroGradient)"/>
  
  <!-- Grille de fond -->
  <rect width="1200" height="800" fill="url(#grid)"/>
  
  <!-- Cercles décoratifs -->
  <circle cx="200" cy="150" r="80" fill="rgba(255,255,255,0.1)" filter="url(#glow)"/>
  <circle cx="1000" cy="250" r="120" fill="rgba(255,255,255,0.08)" filter="url(#glow)"/>
  <circle cx="150" cy="600" r="100" fill="rgba(255,255,255,0.06)" filter="url(#glow)"/>
  <circle cx="950" cy="650" r="90" fill="rgba(255,255,255,0.1)" filter="url(#glow)"/>
  
  <!-- Formes géométriques -->
  <polygon points="300,100 350,200 250,200" fill="rgba(255,255,255,0.1)" filter="url(#glow)"/>
  <polygon points="900,300 950,400 850,400" fill="rgba(255,255,255,0.08)" filter="url(#glow)"/>
  
  <!-- Lignes décoratives -->
  <line x1="0" y1="400" x2="1200" y2="400" stroke="rgba(255,255,255,0.1)" stroke-width="2"/>
  <line x1="600" y1="0" x2="600" y2="800" stroke="rgba(255,255,255,0.1)" stroke-width="2"/>
  
  <!-- Points lumineux -->
  <circle cx="100" cy="100" r="3" fill="rgba(255,255,255,0.8)"/>
  <circle cx="1100" cy="200" r="4" fill="rgba(255,255,255,0.6)"/>
  <circle cx="150" cy="700" r="2" fill="rgba(255,255,255,0.7)"/>
  <circle cx="1050" cy="750" r="3" fill="rgba(255,255,255,0.5)"/>
</svg>
